<svg width="16" height="16" viewBox="0 0 16 16" fill="none" xmlns="http://www.w3.org/2000/svg">
<g clip-path="url(#clip0_108_5)">
<path d="M8 0.25C3.58387 0.25 0 3.72188 0 8C0 12.2781 3.58387 15.75 8 15.75C12.4161 15.75 16 12.2781 16 8C16 3.72188 12.4161 0.25 8 0.25Z" fill="#5720B2"/>
<path d="M13.1161 7.22207C12.9484 7.22207 12.8452 7.18145 12.7 7.1002C10.4032 5.77207 6.29677 5.45332 3.6387 6.17207C3.52258 6.20332 3.37741 6.25332 3.22258 6.25332C2.79677 6.25332 2.47096 5.93145 2.47096 5.51582C2.47096 5.09082 2.74193 4.8502 3.03225 4.76895C4.16774 4.44707 5.4387 4.29395 6.82258 4.29395C9.17741 4.29395 11.6452 4.76895 13.4484 5.7877C13.7 5.92832 13.8645 6.12207 13.8645 6.49395C13.8645 6.91895 13.5097 7.22207 13.1161 7.22207ZM12.1161 9.60332C11.9484 9.60332 11.8355 9.53145 11.7193 9.47207C9.70322 8.31582 6.69677 7.8502 4.02258 8.55332C3.86774 8.59395 3.78387 8.63457 3.6387 8.63457C3.29354 8.63457 3.0129 8.3627 3.0129 8.02832C3.0129 7.69395 3.18064 7.47207 3.5129 7.38145C4.40967 7.1377 5.3258 6.95645 6.66774 6.95645C8.76129 6.95645 10.7839 7.45957 12.3774 8.37832C12.6387 8.52832 12.7419 8.72207 12.7419 8.99395C12.7387 9.33145 12.4677 9.60332 12.1161 9.60332ZM11.2484 11.6533C11.1129 11.6533 11.029 11.6127 10.9032 11.5408C8.89032 10.3658 6.54838 10.3158 4.23548 10.7752C4.10967 10.8064 3.94516 10.8564 3.85161 10.8564C3.5387 10.8564 3.34193 10.6158 3.34193 10.3627C3.34193 10.0408 3.5387 9.8877 3.78064 9.8377C6.42258 9.27207 9.12258 9.32207 11.4258 10.6564C11.6226 10.7783 11.7387 10.8877 11.7387 11.1721C11.7387 11.4564 11.5097 11.6533 11.2484 11.6533Z" fill="black"/>
</g>
<defs>
<clipPath id="clip0_108_5">
<rect width="16" height="16" fill="white"/>
</clipPath>
</defs>
</svg>
