<svg width="32" height="32" viewBox="0 0 32 32" fill="none" xmlns="http://www.w3.org/2000/svg">
<g clip-path="url(#clip0_108_8)">
<path d="M16 0.5C7.16774 0.5 0 7.44375 0 16C0 24.5562 7.16774 31.5 16 31.5C24.8323 31.5 32 24.5562 32 16C32 7.44375 24.8323 0.5 16 0.5Z" fill="#5720B2"/>
<path d="M26.2323 14.4437C25.8968 14.4437 25.6903 14.3624 25.4 14.1999C20.8064 11.5437 12.5935 10.9062 7.27742 12.3437C7.04516 12.4062 6.75484 12.5062 6.44516 12.5062C5.59355 12.5062 4.94193 11.8624 4.94193 11.0312C4.94193 10.1812 5.48387 9.6999 6.06451 9.5374C8.33548 8.89365 10.8774 8.5874 13.6452 8.5874C18.3548 8.5874 23.2903 9.5374 26.8968 11.5749C27.4 11.8562 27.729 12.2437 27.729 12.9874C27.729 13.8374 27.0194 14.4437 26.2323 14.4437ZM24.2323 19.2062C23.8968 19.2062 23.671 19.0624 23.4387 18.9437C19.4064 16.6312 13.3935 15.6999 8.04516 17.1062C7.73548 17.1874 7.56774 17.2687 7.27742 17.2687C6.58709 17.2687 6.0258 16.7249 6.0258 16.0562C6.0258 15.3874 6.36129 14.9437 7.0258 14.7624C8.81935 14.2749 10.6516 13.9124 13.3355 13.9124C17.5226 13.9124 21.5677 14.9187 24.7548 16.7562C25.2774 17.0562 25.4839 17.4437 25.4839 17.9874C25.4774 18.6624 24.9355 19.2062 24.2323 19.2062ZM22.4968 23.3062C22.2258 23.3062 22.0581 23.2249 21.8064 23.0812C17.7806 20.7312 13.0968 20.6312 8.47097 21.5499C8.21935 21.6124 7.89032 21.7124 7.70322 21.7124C7.07742 21.7124 6.68387 21.2312 6.68387 20.7249C6.68387 20.0812 7.07742 19.7749 7.56129 19.6749C12.8452 18.5437 18.2452 18.6437 22.8516 21.3124C23.2452 21.5562 23.4774 21.7749 23.4774 22.3437C23.4774 22.9124 23.0194 23.3062 22.4968 23.3062Z" fill="black"/>
</g>
<defs>
<clipPath id="clip0_108_8">
<rect width="32" height="32" fill="white"/>
</clipPath>
</defs>
</svg>
