<svg width="64" height="64" viewBox="0 0 64 64" fill="none" xmlns="http://www.w3.org/2000/svg">
<path d="M32 1C14.3355 1 0 14.8875 0 32C0 49.1125 14.3355 63 32 63C49.6645 63 64 49.1125 64 32C64 14.8875 49.6645 1 32 1Z" fill="#5720B2"/>
<path d="M52.4645 28.8873C51.7935 28.8873 51.3806 28.7248 50.8 28.3998C41.6129 23.0873 25.1871 21.8123 14.5548 24.6873C14.0903 24.8123 13.5097 25.0123 12.8903 25.0123C11.1871 25.0123 9.88387 23.7248 9.88387 22.0623C9.88387 20.3623 10.9677 19.3998 12.129 19.0748C16.671 17.7873 21.7548 17.1748 27.2903 17.1748C36.7097 17.1748 46.5806 19.0748 53.7935 23.1498C54.8 23.7123 55.4581 24.4873 55.4581 25.9748C55.4581 27.6748 54.0387 28.8873 52.4645 28.8873ZM48.4645 38.4123C47.7935 38.4123 47.3419 38.1248 46.8774 37.8873C38.8129 33.2623 26.7871 31.3998 16.0903 34.2123C15.471 34.3748 15.1355 34.5373 14.5548 34.5373C13.1742 34.5373 12.0516 33.4498 12.0516 32.1123C12.0516 30.7748 12.7226 29.8873 14.0516 29.5248C17.6387 28.5498 21.3032 27.8248 26.671 27.8248C35.0452 27.8248 43.1355 29.8373 49.5097 33.5123C50.5548 34.1123 50.9677 34.8873 50.9677 35.9748C50.9548 37.3248 49.871 38.4123 48.4645 38.4123ZM44.9935 46.6123C44.4516 46.6123 44.1161 46.4498 43.6129 46.1623C35.5613 41.4623 26.1935 41.2623 16.9419 43.0998C16.4387 43.2248 15.7806 43.4248 15.4065 43.4248C14.1548 43.4248 13.3677 42.4623 13.3677 41.4498C13.3677 40.1623 14.1548 39.5498 15.1226 39.3498C25.6903 37.0873 36.4903 37.2873 45.7032 42.6248C46.4903 43.1123 46.9548 43.5498 46.9548 44.6873C46.9548 45.8248 46.0387 46.6123 44.9935 46.6123Z" fill="black"/>
</svg>
